<mxfile host="65bd71144e">
    <diagram id="j6ronZt2kDStrBlGmQai" name="Page-1">
        <mxGraphModel dx="2333" dy="687" grid="1" gridSize="10" guides="1" tooltips="1" connect="1" arrows="1" fold="1" page="1" pageScale="1" pageWidth="850" pageHeight="1100" math="0" shadow="0">
            <root>
                <mxCell id="0"/>
                <mxCell id="1" parent="0"/>
                <mxCell id="10" value="" style="edgeStyle=none;html=1;" edge="1" parent="1" source="2" target="9">
                    <mxGeometry relative="1" as="geometry"/>
                </mxCell>
                <mxCell id="2" value="Получаем данные с счетной палаты&lt;br&gt;&lt;a href=&quot;https://spending.gov.ru/devs/opendata/&quot;&gt;Госрасходы (spending.gov.ru)&lt;/a&gt;" style="ellipse;whiteSpace=wrap;html=1;" vertex="1" parent="1">
                    <mxGeometry x="80" y="190" width="140" height="130" as="geometry"/>
                </mxCell>
                <mxCell id="9" value="Сплитим данные на N-частей" style="ellipse;whiteSpace=wrap;html=1;" vertex="1" parent="1">
                    <mxGeometry x="295" y="190" width="130" height="135" as="geometry"/>
                </mxCell>
            </root>
        </mxGraphModel>
    </diagram>
</mxfile>